<?xml version="1.0" encoding="UTF-8"?>
<svg xmlns="http://www.w3.org/2000/svg" viewBox="0 0 64 64">
  <!-- stem -->
  <rect x="23" y="27" width="18" height="24" rx="7" fill="#cdd6f4" />

  <!-- cap -->
  <path d="M5 30 A27 23 0 0 1 59 30 Z" fill="#cba6f7" />
  <path
    d="M5 30 A27 23 0 0 1 59 30"
    fill="none"
    stroke="#181825"
    stroke-width="1.4"
    stroke-linejoin="round"
    opacity="0.25"
  />

  <!-- spots -->
  <circle cx="19" cy="18" r="3.4" fill="#f2cdcd" />
  <circle cx="34" cy="10" r="2.6" fill="#f2cdcd" />
  <circle cx="46" cy="20" r="3.8" fill="#f2cdcd" />
  <circle cx="27" cy="25" r="2.2" fill="#f2cdcd" />

  <!-- sparkles -->
  <text x="52" y="12" font-size="9" fill="#fab387" opacity="0.75">✦</text>
  <text x="2" y="22" font-size="6" fill="#fab387" opacity="0.5">✦</text>

  <!-- face -->
  <ellipse cx="25.5" cy="39" rx="2.1" ry="1.6" fill="#f5c2e7" opacity="0.7" />
  <ellipse cx="38.5" cy="39" rx="2.1" ry="1.6" fill="#f5c2e7" opacity="0.7" />
  <path
    d="M26.5 35 Q28 33 29.5 35"
    fill="none"
    stroke="#45475a"
    stroke-width="1.5"
    stroke-linecap="round"
  />
  <path
    d="M34.5 35 Q36 33 37.5 35"
    fill="none"
    stroke="#45475a"
    stroke-width="1.5"
    stroke-linecap="round"
  />
  <path
    d="M29 39.5 Q32 42 35 39.5"
    fill="none"
    stroke="#45475a"
    stroke-width="1.3"
    stroke-linecap="round"
  />
</svg>
