<?xml version="1.0" encoding="iso-8859-1"?>
<!-- Uploaded to: SVG Repo, www.svgrepo.com, Generator: SVG Repo Mixer Tools -->
<svg xmlns="http://www.w3.org/2000/svg" xmlns:xlink="http://www.w3.org/1999/xlink" version="1.1" id="Layer_1"  viewBox="0 0 421.553 421.553" xml:space="preserve" width="512" height="512">
<g>
	<g>
		<g>
			<g>
				<polygon style="fill:#D8D2C4;" points="280.087,175.395 131.175,175.395 117.585,385.735 293.675,385.735     "/>
				<polygon style="opacity:0.2;fill:#222222;" points="131.175,175.395 117.585,385.735 205.631,385.735 205.631,175.395     "/>
				<path style="fill:#B08876;" d="M255.478,224.737l-14.976,0.857l9.166,160.141h15.024L255.478,224.737z M146.569,385.735h15.024      l9.166-160.141l-14.976-0.857L146.569,385.735z M198.131,385.735h15V225.166h-15V385.735z"/>
				<polygon style="opacity:0.2;fill:#222222;" points="280.087,175.395 131.175,175.395 125.57,262.159 285.693,262.159     "/>
			</g>
			<g>
				<path style="fill:#7a2d3e;" d="M410.654,195.113l0.011,0.009c-0.019-0.093-0.039-0.183-0.058-0.276      c-0.035-0.175-0.073-0.348-0.11-0.521C391.257,98.772,306.851,26.814,205.631,26.814c-101.219,0-185.625,71.959-204.865,167.511      c-0.038,0.174-0.075,0.347-0.109,0.521c-0.017,0.094-0.039,0.184-0.057,0.276l0.008-0.009C0.216,197.193,0,199.339,0,201.532      c0,18.927,15.344,34.271,34.27,34.271h342.723c18.927,0,34.271-15.345,34.271-34.271      C411.264,199.339,411.05,197.193,410.654,195.113z"/>
				<g>
					<circle style="fill:#FFFFFF;" cx="311.727" cy="175.395" r="39.796"/>
					<circle style="fill:#FFFFFF;" cx="293.675" cy="91.777" r="16.072"/>
					<circle style="fill:#FFFFFF;" cx="117.585" cy="102.973" r="16.072"/>
					<circle style="fill:#FFFFFF;" cx="237.511" cy="131.309" r="24.508"/>
					<circle style="fill:#FFFFFF;" cx="74.717" cy="169.042" r="24.509"/>
				</g>
				<path style="opacity:0.3;fill:#222222;" d="M0.766,194.324c-0.038,0.174-0.075,0.347-0.109,0.521      c-0.017,0.094-0.039,0.184-0.057,0.276l0.008-0.009C0.216,197.193,0,199.339,0,201.532c0,18.927,15.344,34.271,34.27,34.271      h171.361V26.814C104.412,26.814,20.006,98.772,0.766,194.324z"/>
			</g>
		</g>
	</g>
	<g>
		<g>
			<g>
				<polygon style="fill:#D8D2C4;" points="371.775,314.923 315.269,314.923 310.112,394.739 376.932,394.739     "/>
				<polygon style="opacity:0.2;fill:#222222;" points="315.269,314.923 310.112,394.739 343.522,394.739 343.522,314.923     "/>
				<rect x="336.022" y="333.809" style="fill:#B08876;" width="15" height="60.931"/>
				<polygon style="opacity:0.2;fill:#222222;" points="371.775,314.923 315.269,314.923 313.142,347.846 373.903,347.846     "/>
			</g>
			<g>
				<path style="fill:#7a2d3e;" d="M421.321,322.404l0.004,0.004c-0.007-0.035-0.015-0.069-0.022-0.104      c-0.013-0.066-0.028-0.132-0.042-0.198c-7.301-36.259-39.33-63.565-77.739-63.565c-38.409,0-70.438,27.306-77.739,63.565      c-0.015,0.066-0.028,0.132-0.042,0.198c-0.006,0.035-0.015,0.069-0.021,0.104l0.003-0.004c-0.149,0.79-0.23,1.604-0.23,2.437      c0,7.182,5.822,13.004,13.004,13.004h130.051c7.183,0,13.005-5.822,13.005-13.004      C421.553,324.009,421.471,323.194,421.321,322.404z"/>
				<g>
					<circle style="fill:#FFFFFF;" cx="376.932" cy="306.603" r="15.101"/>
				</g>
				<g>
					<circle style="fill:#FFFFFF;" cx="321.609" cy="290.502" r="15.101"/>
				</g>
				<path style="opacity:0.3;fill:#222222;" d="M265.783,322.105c-0.015,0.066-0.028,0.132-0.042,0.198      c-0.006,0.035-0.015,0.069-0.021,0.104l0.003-0.004c-0.149,0.79-0.23,1.604-0.23,2.437c0,7.182,5.822,13.004,13.004,13.004      h65.026v-79.304C305.113,258.541,273.085,285.847,265.783,322.105z"/>
			</g>
		</g>
	</g>
</g>















</svg>